<?xml version="1.0" encoding="utf-8"?>
<!-- Generator: Adobe Illustrator 22.0.1, SVG Export Plug-In . SVG Version: 6.00 Build 0)  -->
<svg version="1.1" id="レイヤー_1" xmlns="http://www.w3.org/2000/svg" xmlns:xlink="http://www.w3.org/1999/xlink" x="0px"
	 y="0px" viewBox="0 0 100 100" style="enable-background:new 0 0 100 100;" xml:space="preserve">
<style type="text/css">
	.st0{fill:#FE1673;}
</style>
<g>
	<path class="st0" d="M94.8,38.1c0,5.2-1.5,10.1-4.2,14.2c-1.6,3.1-3.6,6.2-10,13.3C70,77.2,55.8,86.1,49.9,88.1
		c-5.8-2-16.9-10.8-28-20.6c-7.1-6.3-11.7-12.5-14-17.8c-1.7-3.5-2.7-7.4-2.7-11.5C5.2,23.7,16.9,12,31.4,12c7.3,0,13.9,3,18.6,7.8
		C54.8,15,61.3,12,68.6,12C83.1,11.9,94.8,23.7,94.8,38.1z"/>
</g>
</svg>
