<?xml version="1.0" encoding="utf-8"?>
<!-- Generator: Adobe Illustrator 22.0.1, SVG Export Plug-In . SVG Version: 6.00 Build 0)  -->
<svg version="1.1" id="レイヤー_1" xmlns="http://www.w3.org/2000/svg" xmlns:xlink="http://www.w3.org/1999/xlink" x="0px"
	 y="0px" viewBox="0 0 100 100" style="enable-background:new 0 0 100 100;" xml:space="preserve">
<style type="text/css">
	.st0{fill:#FE1673;}
</style>
<path class="st0" d="M84.2,71.6l-0.4-0.9c-1.2-2.8-16-7.2-17.2-7.3l-1,0.1c-2,0.4-4.2,2.3-8.9,6.4c-5.3-2.4-12.4-8.9-15.8-12.7
	c-3.7-4.1-8.2-11.1-9.9-16.3c5.3-4.7,7.5-6.8,7.7-9c0.1-1.2-2.5-16.4-5.1-17.9l-0.8-0.5c-1.7-1.1-4.3-2.8-7.1-2.2
	c-0.7,0.1-1.4,0.4-2,0.8c-1.9,1.2-6.6,4.5-8.8,8.7c-1.3,2.7-1.9,26.8,16.2,47.3c17.9,20.2,40,21.1,43.3,20.4l0.1,0l0.3-0.1
	c4.5-1.6,8.3-5.9,9.7-7.6C87,77.6,85.2,73.7,84.2,71.6z"/>
</svg>
